<svg width="18" height="18" viewBox="0 0 18 18" fill="none" xmlns="http://www.w3.org/2000/svg">
<g clip-path="url(#clip0_97_568)">
<path d="M14.25 12.675C15.1614 12.49 15.9715 11.9729 16.523 11.2241C17.0746 10.4754 17.3282 9.5484 17.2348 8.62314C17.1413 7.69788 16.7074 6.84036 16.0172 6.21704C15.3271 5.59372 14.43 5.24908 13.5 5.25001H12.555C12.3065 4.288 11.823 3.40275 11.1479 2.67375C10.4728 1.94475 9.62724 1.39481 8.68711 1.07331C7.74698 0.751808 6.74173 0.66881 5.7616 0.831767C4.78147 0.994724 3.85715 1.39853 3.07163 2.00694C2.2861 2.61535 1.66397 3.40931 1.26107 4.31754C0.858178 5.22578 0.687139 6.21984 0.763311 7.2105C0.839483 8.20116 1.16048 9.1574 1.69749 9.99336C2.23449 10.8293 2.97069 11.5188 3.84 12" stroke="#9A81DA" stroke-width="2" stroke-linecap="round" stroke-linejoin="round"/>
<path d="M9.75 8.25L6.75 12.75H11.25L8.25 17.25" stroke="#9A81DA" stroke-width="2" stroke-linecap="round" stroke-linejoin="round"/>
</g>
<defs>
<clipPath id="clip0_97_568">
<rect width="18" height="18" fill="white"/>
</clipPath>
</defs>
</svg>
