<svg width="18" height="18" viewBox="0 0 18 18" fill="none" xmlns="http://www.w3.org/2000/svg">
<g clip-path="url(#clip0_97_571)">
<path d="M6 14.25V15.75" stroke="#9A81DA" stroke-width="2" stroke-linecap="round" stroke-linejoin="round"/>
<path d="M6 9.75V11.25" stroke="#9A81DA" stroke-width="2" stroke-linecap="round" stroke-linejoin="round"/>
<path d="M12 14.25V15.75" stroke="#9A81DA" stroke-width="2" stroke-linecap="round" stroke-linejoin="round"/>
<path d="M12 9.75V11.25" stroke="#9A81DA" stroke-width="2" stroke-linecap="round" stroke-linejoin="round"/>
<path d="M9 15.75V17.25" stroke="#9A81DA" stroke-width="2" stroke-linecap="round" stroke-linejoin="round"/>
<path d="M9 11.25V12.75" stroke="#9A81DA" stroke-width="2" stroke-linecap="round" stroke-linejoin="round"/>
<path d="M15 12.435C15.7884 12.0897 16.4341 11.4837 16.8286 10.7187C17.223 9.95364 17.3423 9.07621 17.1664 8.23364C16.9905 7.39107 16.5301 6.63466 15.8625 6.09137C15.1949 5.54809 14.3607 5.25101 13.5 5.25H12.555C12.3173 4.32939 11.8641 3.47846 11.233 2.76735C10.6018 2.05624 9.8107 1.50531 8.92482 1.15996C8.03894 0.814624 7.08367 0.684761 6.13776 0.781081C5.19184 0.877402 4.28235 1.19715 3.48427 1.71396C2.68618 2.23078 2.02234 2.92986 1.54747 3.7536C1.0726 4.57733 0.800299 5.50213 0.753003 6.45176C0.705708 7.40139 0.884776 8.34867 1.27545 9.21551C1.66612 10.0824 2.25721 10.8439 2.99999 11.4375" stroke="#9A81DA" stroke-width="2" stroke-linecap="round" stroke-linejoin="round"/>
</g>
<defs>
<clipPath id="clip0_97_571">
<rect width="18" height="18" fill="white"/>
</clipPath>
</defs>
</svg>
