<svg width="18" height="18" viewBox="0 0 18 18" fill="none" xmlns="http://www.w3.org/2000/svg">
<g clip-path="url(#clip0_97_436)">
<path d="M10.59 10.59C10.384 10.811 10.1356 10.9884 9.85961 11.1113C9.58362 11.2343 9.28568 11.3004 8.98357 11.3058C8.68146 11.3111 8.38137 11.2555 8.10121 11.1424C7.82104 11.0292 7.56654 10.8608 7.35288 10.6471C7.13923 10.4334 6.97079 10.1789 6.85763 9.89878C6.74447 9.61862 6.68889 9.31853 6.69423 9.01642C6.69956 8.71431 6.76568 8.41637 6.88866 8.14037C7.01163 7.86438 7.18894 7.61597 7.41 7.40999M13.455 13.455C12.1729 14.4322 10.6118 14.9736 9 15C3.75 15 0.75 8.99999 0.75 8.99999C1.68292 7.26141 2.97685 5.74244 4.545 4.54499L13.455 13.455ZM7.425 3.17999C7.94125 3.05915 8.4698 2.99874 9 2.99999C14.25 2.99999 17.25 8.99999 17.25 8.99999C16.7947 9.85169 16.2518 10.6535 15.63 11.3925L7.425 3.17999Z" stroke="#9A81DA" stroke-width="2" stroke-linecap="round" stroke-linejoin="round"/>
<path d="M0.75 0.75L17.25 17.25" stroke="#9A81DA" stroke-width="2" stroke-linecap="round" stroke-linejoin="round"/>
</g>
<defs>
<clipPath id="clip0_97_436">
<rect width="18" height="18" fill="white"/>
</clipPath>
</defs>
</svg>
