<svg width="18" height="18" viewBox="0 0 18 18" fill="none" xmlns="http://www.w3.org/2000/svg">
<g clip-path="url(#clip0_97_579)">
<path d="M6.75 14.25C3 15.375 3 12.375 1.5 12M12 16.5V13.5975C12.0281 13.2399 11.9798 12.8804 11.8583 12.5429C11.7367 12.2053 11.5447 11.8976 11.295 11.64C13.65 11.3775 16.125 10.485 16.125 6.39001C16.1248 5.34288 15.722 4.33591 15 3.57751C15.3419 2.66139 15.3177 1.64878 14.9325 0.750014C14.9325 0.750014 14.0475 0.487514 12 1.86001C10.281 1.39413 8.46899 1.39413 6.75 1.86001C4.7025 0.487514 3.8175 0.750014 3.8175 0.750014C3.43228 1.64878 3.40811 2.66139 3.75 3.57751C3.0226 4.34154 2.61939 5.35761 2.625 6.41251C2.625 10.4775 5.1 11.37 7.455 11.6625C7.20825 11.9175 7.01795 12.2216 6.89648 12.555C6.77502 12.8883 6.72511 13.2436 6.75 13.5975V16.5" stroke="#9A81DA" stroke-width="2" stroke-linecap="round" stroke-linejoin="round"/>
</g>
<defs>
<clipPath id="clip0_97_579">
<rect width="18" height="18" fill="white"/>
</clipPath>
</defs>
</svg>
