<svg width="18" height="18" viewBox="0 0 18 18" fill="none" xmlns="http://www.w3.org/2000/svg">
<g clip-path="url(#clip0_97_419)">
<path d="M9 16.5C13.1421 16.5 16.5 13.1421 16.5 9C16.5 4.85786 13.1421 1.5 9 1.5C4.85786 1.5 1.5 4.85786 1.5 9C1.5 13.1421 4.85786 16.5 9 16.5Z" stroke="#9A81DA" stroke-width="2" stroke-linecap="round" stroke-linejoin="round"/>
<path d="M6.81747 6.74997C6.9938 6.24872 7.34184 5.82605 7.79994 5.55682C8.25804 5.28759 8.79665 5.18917 9.32036 5.279C9.84407 5.36883 10.3191 5.64111 10.6613 6.04762C11.0035 6.45412 11.1908 6.96861 11.19 7.49997C11.19 8.99997 8.93997 9.74997 8.93997 9.74997" stroke="#9A81DA" stroke-width="2" stroke-linecap="round" stroke-linejoin="round"/>
<path d="M9 12.75H9.0075" stroke="#9A81DA" stroke-width="2" stroke-linecap="round" stroke-linejoin="round"/>
</g>
<defs>
<clipPath id="clip0_97_419">
<rect width="18" height="18" fill="white"/>
</clipPath>
</defs>
</svg>
