<svg width="18" height="18" viewBox="0 0 18 18" fill="none" xmlns="http://www.w3.org/2000/svg">
<g clip-path="url(#clip0_97_371)">
<path d="M6.75 16.5C7.16421 16.5 7.5 16.1642 7.5 15.75C7.5 15.3358 7.16421 15 6.75 15C6.33579 15 6 15.3358 6 15.75C6 16.1642 6.33579 16.5 6.75 16.5Z" stroke="#9A81DA" stroke-width="2" stroke-linecap="round" stroke-linejoin="round"/>
<path d="M15 16.5C15.4142 16.5 15.75 16.1642 15.75 15.75C15.75 15.3358 15.4142 15 15 15C14.5858 15 14.25 15.3358 14.25 15.75C14.25 16.1642 14.5858 16.5 15 16.5Z" stroke="#9A81DA" stroke-width="2" stroke-linecap="round" stroke-linejoin="round"/>
<path d="M0.999939 1H3.49994L5.75994 10.7925C5.82852 11.1378 6.01637 11.448 6.2906 11.6687C6.56483 11.8895 6.90796 12.0067 7.25994 12H14.5499C14.9019 12.0067 15.2451 11.8895 15.5193 11.6687C15.7935 11.448 15.9814 11.1378 16.0499 10.7925L16.9999 4.5H4.3077" stroke="#9A81DA" stroke-width="2" stroke-linecap="round" stroke-linejoin="round"/>
</g>
<defs>
<clipPath id="clip0_97_371">
<rect width="18" height="18" fill="white"/>
</clipPath>
</defs>
</svg>
