<svg width="18" height="18" viewBox="0 0 18 18" fill="none" xmlns="http://www.w3.org/2000/svg">
<path d="M2.56065 7.50001H11.25C11.6642 7.50001 12 7.16424 12 6.75002C12 6.33581 11.6642 6.00003 11.25 6.00003H2.56065L4.28032 4.28036C4.5732 3.98747 4.5732 3.51258 4.28032 3.2197C3.98743 2.92681 3.51254 2.92681 3.21965 3.2197L0.219629 6.21969C0.202157 6.23716 0.185633 6.25555 0.169954 6.27468C0.162852 6.28332 0.156665 6.29246 0.15002 6.30136C0.142004 6.31205 0.133743 6.32249 0.12629 6.33363C0.119153 6.34428 0.112965 6.35536 0.106426 6.36629C0.100415 6.37635 0.0940864 6.38619 0.0885317 6.39656C0.0825552 6.40771 0.0774927 6.4192 0.0721489 6.43059C0.0670513 6.44139 0.0616724 6.452 0.0570669 6.46308C0.0524966 6.47415 0.04877 6.48547 0.0447622 6.49672C0.0405083 6.50857 0.0359731 6.52024 0.0323169 6.53234C0.0289067 6.54359 0.0264106 6.55501 0.023563 6.5664C0.0204341 6.57874 0.0169888 6.59094 0.0144927 6.60353C0.0118911 6.61671 0.0103442 6.63 0.0084458 6.64325C0.00689893 6.65419 0.00478955 6.66498 0.00369971 6.67605C-0.00115186 6.72527 -0.00115186 6.77488 0.00369971 6.8241C0.00478955 6.83517 0.00686377 6.84593 0.0084458 6.8569C0.0103442 6.87015 0.0118911 6.88348 0.0145278 6.89663C0.0170239 6.90921 0.0204692 6.92138 0.0235981 6.93372C0.0264458 6.94511 0.0289419 6.95653 0.032352 6.96778C0.0360083 6.97988 0.0405434 6.99158 0.0447974 7.0034C0.0488403 7.01465 0.0525317 7.02597 0.057102 7.03704C0.0616724 7.04811 0.0670864 7.0587 0.0721841 7.06949C0.077563 7.08088 0.0826255 7.09238 0.088602 7.10356C0.0941567 7.11389 0.10045 7.1237 0.106461 7.13375C0.113 7.14472 0.119188 7.1558 0.126325 7.16648C0.133743 7.17759 0.142004 7.188 0.149985 7.19869C0.156665 7.20762 0.162852 7.21676 0.169989 7.22544C0.185563 7.24443 0.201981 7.26267 0.219313 7.28C0.219454 7.28015 0.219524 7.28029 0.219665 7.28039L3.21965 10.2804C3.51254 10.5733 3.98743 10.5733 4.28032 10.2804C4.5732 9.9875 4.5732 9.51261 4.28032 9.21972L2.56065 7.50001Z" fill="#9A81DA"/>
<path d="M17.83 11.7254C17.8371 11.7167 17.8433 11.7075 17.85 11.6985C17.858 11.6879 17.8663 11.6775 17.8736 11.6664C17.8808 11.6557 17.887 11.6446 17.8935 11.6337C17.8995 11.6236 17.9058 11.6138 17.9113 11.6035C17.9173 11.5924 17.9224 11.5808 17.9278 11.5694C17.9329 11.5586 17.9382 11.5481 17.9428 11.537C17.9474 11.5259 17.9511 11.5146 17.9551 11.5034C17.9594 11.4915 17.9639 11.4799 17.9676 11.4678C17.971 11.4565 17.9735 11.445 17.9763 11.4337C17.9795 11.4214 17.9829 11.4092 17.9854 11.3966C17.988 11.3834 17.9895 11.3701 17.9915 11.3569C17.993 11.3459 17.9951 11.3352 17.9962 11.3241C18.0011 11.2749 18.0011 11.2253 17.9962 11.176C17.9951 11.165 17.9931 11.1542 17.9915 11.1432C17.9896 11.13 17.988 11.1167 17.9854 11.1035C17.9829 11.0909 17.9795 11.0788 17.9763 11.0664C17.9735 11.055 17.971 11.0436 17.9676 11.0323C17.9639 11.0203 17.9594 11.0085 17.9551 10.9967C17.9511 10.9855 17.9474 10.9742 17.9428 10.9631C17.9383 10.9521 17.9329 10.9415 17.9278 10.9307C17.9224 10.9193 17.9173 10.9078 17.9113 10.8966C17.9058 10.8863 17.8995 10.8765 17.8935 10.8664C17.887 10.8555 17.8808 10.8444 17.8736 10.8337C17.8662 10.8226 17.858 10.8122 17.85 10.8016C17.8433 10.7926 17.8371 10.7834 17.83 10.7747C17.8145 10.7559 17.7982 10.7378 17.781 10.7206C17.7808 10.7203 17.7805 10.72 17.7803 10.7198L14.7803 7.71979C14.4874 7.4269 14.0125 7.4269 13.7196 7.71979C13.4268 8.01267 13.4268 8.48756 13.7196 8.78045L15.4393 10.5001H6.74999C6.33578 10.5001 6 10.8359 6 11.2501C6 11.6643 6.33578 12.0001 6.74999 12.0001H15.4393L13.7196 13.7198C13.4268 14.0127 13.4268 14.4875 13.7196 14.7804C14.0125 15.0733 14.4874 15.0733 14.7803 14.7804L17.7803 11.7804C17.7806 11.7802 17.7808 11.7799 17.781 11.7796C17.7982 11.7623 17.8145 11.7442 17.83 11.7254Z" fill="#9A81DA"/>
</svg>
