<svg width="18" height="18" viewBox="0 0 18 18" fill="none" xmlns="http://www.w3.org/2000/svg">
<g clip-path="url(#clip0_97_528)">
<path d="M12.75 1.49997H14.7525C15.177 1.49246 15.5894 1.64107 15.9116 1.91758C16.2337 2.19409 16.4431 2.57926 16.5 2.99997V8.24996C16.4431 8.67067 16.2337 9.05584 15.9116 9.33235C15.5894 9.60886 15.177 9.75747 14.7525 9.74996H12.75M7.50002 11.25V14.25C7.50002 14.8467 7.73708 15.419 8.15903 15.841C8.58099 16.2629 9.15329 16.5 9.75002 16.5L12.75 9.74996V1.49997H4.29002C3.92828 1.49588 3.57724 1.62266 3.30159 1.85696C3.02595 2.09126 2.84427 2.41729 2.79002 2.77497L1.75502 9.52496C1.72239 9.73995 1.73689 9.95945 1.79752 10.1683C1.85814 10.3771 1.96345 10.5702 2.10613 10.7343C2.24881 10.8984 2.42546 11.0295 2.62384 11.1186C2.82222 11.2076 3.03759 11.2524 3.25502 11.25H7.50002Z" stroke="#9A81DA" stroke-width="2" stroke-linecap="round" stroke-linejoin="round"/>
</g>
<defs>
<clipPath id="clip0_97_528">
<rect width="18" height="18" fill="white"/>
</clipPath>
</defs>
</svg>
