<svg width="524" height="721" viewBox="0 0 524 721" fill="none" xmlns="http://www.w3.org/2000/svg">
<path fill-rule="evenodd" clip-rule="evenodd" d="M524 596.118C504.485 586.294 484.316 578.95 463.071 576.05C444.953 573.576 440.228 593.929 435.125 615.907C431.22 632.727 427.094 650.499 416.575 659.719C388.811 684.057 352.835 697.551 316.557 704.479C307.969 706.119 298.972 708.247 289.789 710.42C250.123 719.803 207.001 730.005 178.553 705.174C160.095 689.064 163.369 662.41 166.701 635.282C169.756 610.409 172.86 585.136 159.307 567.226C142.592 545.136 108.897 535.702 76.7875 526.712C35.9432 515.276 -2.33653 504.559 0.156603 469.423C4.92677 402.197 50.4654 358.801 140.461 370.081C170.706 373.872 199.324 381.438 224.286 388.037C273.599 401.073 308.646 410.338 313.791 379.282C323.323 321.746 296.007 265.045 268.97 208.92C239.089 146.893 209.547 85.5696 230.456 24.6005C251.64 -37.1694 377.759 34.5793 413.185 89.4615C433.357 120.714 436.347 153.497 439.057 183.222C442.859 224.914 446.111 260.589 495.461 277.581C505.792 281.138 515.244 283.004 524 283.496V596.118Z" fill="#444787" fill-opacity="0.08"/>
</svg>
