<svg width="248" height="229" viewBox="0 0 248 229" fill="none" xmlns="http://www.w3.org/2000/svg">
<path fill-rule="evenodd" clip-rule="evenodd" d="M248 63.5448C243.828 63.9546 239.821 64.9279 236.057 66.3875C230.816 28.8727 198.601 0 159.643 0C126.295 0 97.8889 21.1543 87.1111 50.7754C84.2231 50.2797 81.2542 50.0214 78.2249 50.0214C49.4233 50.0214 26.075 73.3698 26.075 102.171C11.6743 102.171 0 113.846 0 128.246C0 142.647 11.6741 154.321 26.075 154.321H78.2249H159.643H248V63.5448Z" fill="#EFE8FF" fill-opacity="0.46"/>
<path fill-rule="evenodd" clip-rule="evenodd" d="M248 112.807C245.263 112.411 242.464 112.206 239.617 112.206C215.128 112.206 194.183 127.381 185.673 148.84C184.337 148.705 182.981 148.635 181.61 148.635C173.255 148.635 165.502 151.21 159.1 155.609C150.819 144.569 137.625 137.426 122.761 137.426C101.436 137.426 83.5452 152.13 78.6741 171.953C77.2427 171.73 75.7756 171.614 74.2815 171.614C58.6501 171.614 45.9785 184.286 45.9785 199.917C45.9785 215.267 58.1985 227.764 73.4412 228.208V228.22H74.2605H74.2815H74.3025H122.715H122.761H122.808H181.585H181.61H181.635H239.617H248V112.807Z" fill="#D9D9D9" fill-opacity="0.15"/>
</svg>
