<svg width="296" height="223" viewBox="0 0 296 223" fill="none" xmlns="http://www.w3.org/2000/svg">
<path fill-rule="evenodd" clip-rule="evenodd" d="M0 222.111H88.571H153.322H205.65C219.372 222.111 230.496 210.987 230.496 197.264C230.496 183.542 219.372 172.418 205.65 172.418C205.217 172.418 204.786 172.429 204.359 172.451C204.034 172.468 203.71 172.491 203.389 172.52C203.39 172.361 203.391 172.201 203.391 172.042C203.391 149.021 187.854 129.629 166.695 123.778C158.471 88.2338 126.615 61.7392 88.571 61.7392C60.3838 61.7392 35.5933 76.2833 21.2949 98.2764C14.781 94.7445 7.60474 92.2789 0 91.1135V222.111Z" fill="#EFE8FF" fill-opacity="0.41"/>
<path fill-rule="evenodd" clip-rule="evenodd" d="M0 155.854H71.8572H138.968L139.003 155.854L139.038 155.854H207.121H263.238H264.211V155.838C281.855 155.24 296 138.453 296 117.832C296 96.8325 281.332 79.8093 263.238 79.8093C261.509 79.8093 259.811 79.9648 258.154 80.2644C252.516 53.6348 231.806 33.8813 207.121 33.8813C189.917 33.8813 174.644 43.4768 165.058 58.308C157.648 52.3984 148.673 48.9397 139.003 48.9397C137.415 48.9397 135.845 49.033 134.298 49.2151C124.448 20.3862 100.204 0 71.8572 0C44.7788 0 21.4441 18.6028 10.8237 45.3972C7.41992 43.3998 3.79395 41.8386 0 40.7766V155.854Z" fill="#D9D9D9" fill-opacity="0.15"/>
</svg>
