<svg width="497" height="566" viewBox="0 0 497 566" fill="none" xmlns="http://www.w3.org/2000/svg">
<path fill-rule="evenodd" clip-rule="evenodd" d="M0 0V435.048C5.99042 448.075 10.916 462.185 15.7953 476.162C29.8145 516.321 43.4514 555.385 80.863 564.513C111.243 571.925 132.923 544.977 155.397 517.042C174.763 492.97 194.719 468.166 221.338 463.982C253.655 458.904 288.356 476.503 321.887 493.508C363.944 514.838 404.161 535.234 435.524 508.777C484.679 467.311 454.335 384.204 430.285 318.337C427.318 310.209 424.446 302.344 421.832 294.852C413.492 270.957 389.054 253.177 365.461 236.011C335.36 214.111 306.633 193.211 314.46 161.885C324.253 122.692 365.715 101.869 406.642 81.3149C448.405 60.341 489.611 39.6472 496.038 0H0Z" fill="#444787" fill-opacity="0.1"/>
</svg>
