<svg width="954" height="269" viewBox="0 0 954 269" fill="none" xmlns="http://www.w3.org/2000/svg">
<path fill-rule="evenodd" clip-rule="evenodd" d="M0 269L951.851 269C953.144 263.063 953.825 256.898 953.825 250.574C953.825 216.838 934.442 187.63 906.205 173.478C907.073 170.601 907.54 167.55 907.54 164.389C907.54 147.054 893.487 133.001 876.152 133.001C870.214 133.001 864.661 134.65 859.926 137.515C839.331 118.217 811.64 106.401 781.189 106.401C738.163 106.401 700.647 129.993 680.872 164.947C679.044 73.538 604.374 0 512.527 0C440.707 0 379.389 44.966 355.19 108.281C338.776 99.9341 320.199 95.2287 300.523 95.2287C292.213 95.2287 284.098 96.0682 276.259 97.6671C248.64 54.3021 200.135 25.5362 144.912 25.5362C100.942 25.5362 61.231 43.7734 32.9309 73.0964C25.0239 66.0173 14.5813 61.7125 3.1333 61.7125C2.08008 61.7125 1.03516 61.749 0 61.8207V269Z" fill="url(#paint0_linear_187_63)"/>
<defs>
<linearGradient id="paint0_linear_187_63" x1="398.72" y1="-7.06944" x2="388.884" y2="177.658" gradientUnits="userSpaceOnUse">
<stop stop-color="#3F4077"/>
<stop offset="1" stop-color="#1B1D41"/>
</linearGradient>
</defs>
</svg>
