<svg width="133" height="99" viewBox="0 0 133 99" fill="none" xmlns="http://www.w3.org/2000/svg">
<rect width="104" height="64" rx="32" transform="matrix(-1 0 0 1 113 18)" fill="white"/>
<ellipse rx="26.5" ry="18" transform="matrix(-1 0 0 1 84.5 72)" fill="white"/>
<circle r="26.5" transform="matrix(-1 0 0 1 26.5 36.5)" fill="white"/>
<circle r="26.5" transform="matrix(-1 0 0 1 96.5 27.5)" fill="white"/>
<circle r="26.5" transform="matrix(-1 0 0 1 45.5 72.5)" fill="white"/>
<circle r="26.5" transform="matrix(-1 0 0 1 58.5 26.5)" fill="white"/>
<circle r="26.5" transform="matrix(-1 0 0 1 26.5 58.5)" fill="white"/>
<circle r="26.5" transform="matrix(-1 0 0 1 106.5 50.5)" fill="white"/>
</svg>
