<svg width="213" height="83" viewBox="0 0 213 83" fill="none" xmlns="http://www.w3.org/2000/svg">
<path d="M57.6946 24.7841C59.7145 24.7841 61.545 25.0618 63.1861 25.6173C64.8273 26.1475 66.2412 26.9302 67.4279 27.9654C68.6145 29.0005 69.5235 30.2503 70.1547 31.7148C70.8111 33.1792 71.1394 34.8329 71.1394 36.6761C71.1394 38.494 70.8111 40.1351 70.1547 41.5995C69.5235 43.0387 68.6145 44.2759 67.4279 45.311C66.2412 46.3462 64.8273 47.1416 63.1861 47.697C61.545 48.2272 59.7145 48.4923 57.6946 48.4923C55.7 48.4923 53.8821 48.2272 52.2409 47.697C50.5998 47.1416 49.1859 46.3462 47.9992 45.311C46.8125 44.2759 45.9036 43.0387 45.2723 41.5995C44.6411 40.1351 44.3255 38.494 44.3255 36.6761C44.3255 34.8329 44.6411 33.1792 45.2723 31.7148C45.9036 30.2503 46.8125 29.0005 47.9992 27.9654C49.1859 26.9302 50.5998 26.1475 52.2409 25.6173C53.8821 25.0618 55.7 24.7841 57.6946 24.7841ZM57.6946 47.0153C59.2347 47.0153 60.5729 46.5987 61.7091 45.7655C62.8705 44.9071 63.7542 43.7078 64.3602 42.1676C64.9914 40.6275 65.307 38.7969 65.307 36.6761C65.307 34.53 64.9914 32.6868 64.3602 31.1467C63.7542 29.5813 62.8705 28.382 61.7091 27.5488C60.5729 26.6903 59.2347 26.2611 57.6946 26.2611C56.1797 26.2611 54.8541 26.6903 53.718 27.5488C52.5818 28.382 51.6981 29.5813 51.0669 31.1467C50.4357 32.6868 50.12 34.53 50.12 36.6761C50.12 38.7969 50.4357 40.6275 51.0669 42.1676C51.6981 43.7078 52.5818 44.9071 53.718 45.7655C54.8541 46.5987 56.1797 47.0153 57.6946 47.0153Z" fill="white"/>
<path d="M75.5166 24.7462L97.7479 44.2885L98.1266 48.4923L75.9332 28.9501L75.5166 24.7462ZM75.6681 45.6898V48H72.8655V47.6213C72.8655 47.6213 72.9665 47.6213 73.1685 47.6213C73.3705 47.6213 73.4715 47.6213 73.4715 47.6213C74.0522 47.6213 74.5446 47.4445 74.9485 47.0911C75.3525 46.7123 75.5545 46.2452 75.5545 45.6898H75.6681ZM80.743 45.6898C80.7683 46.2452 80.9829 46.7123 81.3869 47.0911C81.7909 47.4445 82.2706 47.6213 82.826 47.6213C82.826 47.6213 82.927 47.6213 83.129 47.6213C83.3563 47.6213 83.4699 47.6213 83.4699 47.6213V48H80.6673V45.6898H80.743ZM75.5166 24.7462L80.743 30.4271V48H75.5545V29.0637C75.5545 27.776 75.4914 26.7408 75.3651 25.9581C75.2389 25.1502 75.1758 24.7462 75.1758 24.7462H75.5166ZM98.0887 25.2764V44.0612C98.0887 44.9449 98.114 45.7276 98.1645 46.4093C98.2402 47.0658 98.3033 47.5834 98.3538 47.9621C98.4296 48.3156 98.4675 48.4923 98.4675 48.4923H98.1266L92.9002 42.4706V25.2764H98.0887ZM97.9751 27.5866V25.2764H100.816V25.6551C100.816 25.6551 100.702 25.6551 100.475 25.6551C100.273 25.6551 100.172 25.6551 100.172 25.6551C99.6163 25.6551 99.1239 25.8445 98.6947 26.2232C98.2907 26.5767 98.0887 27.0312 98.0887 27.5866H97.9751ZM92.9002 27.5866C92.8749 27.0312 92.6603 26.5767 92.2563 26.2232C91.8776 25.8445 91.3979 25.6551 90.8172 25.6551C90.8172 25.6551 90.7036 25.6551 90.4763 25.6551C90.2743 25.6551 90.1733 25.6551 90.1733 25.6551V25.2764H92.9759V27.5866H92.9002Z" fill="white"/>
<path d="M110.977 25.2764V48H105.523V25.2764H110.977ZM105.637 45.614V48H102.872V47.6213C102.872 47.6213 102.948 47.6213 103.099 47.6213C103.251 47.6213 103.339 47.6213 103.364 47.6213C103.945 47.6213 104.45 47.4319 104.879 47.0532C105.308 46.6492 105.523 46.1695 105.523 45.614H105.637ZM110.901 45.614H110.977C111.002 46.1695 111.217 46.6492 111.621 47.0532C112.05 47.4319 112.567 47.6213 113.173 47.6213C113.173 47.6213 113.236 47.6213 113.363 47.6213C113.514 47.6213 113.603 47.6213 113.628 47.6213V48H110.901V45.614ZM110.901 27.6624V25.2764H113.628L113.59 25.6551C113.59 25.6551 113.527 25.6551 113.401 25.6551C113.274 25.6551 113.199 25.6551 113.173 25.6551C112.567 25.6551 112.05 25.8445 111.621 26.2232C111.217 26.6019 111.002 27.0817 110.977 27.6624H110.901ZM105.637 27.6624H105.523C105.523 27.0817 105.308 26.6019 104.879 26.2232C104.45 25.8445 103.932 25.6551 103.326 25.6551C103.326 25.6551 103.251 25.6551 103.099 25.6551C102.948 25.6551 102.872 25.6551 102.872 25.6551V25.2764H105.637V27.6624Z" fill="white"/>
<path d="M123.804 25.2764H127.895C128.93 25.2764 129.94 25.39 130.924 25.6173C131.909 25.8192 132.793 26.1601 133.575 26.6398C134.358 27.0943 134.977 27.7255 135.431 28.5335C135.911 29.3162 136.151 30.3008 136.151 31.4875C136.151 32.3712 135.961 33.2549 135.583 34.1386C135.229 34.9971 134.661 35.7419 133.878 36.3731C133.121 37.0043 132.124 37.4209 130.886 37.6229C131.619 37.8501 132.313 38.292 132.969 38.9484C133.651 39.6049 134.181 40.2235 134.56 40.8042C134.661 41.0062 134.838 41.3344 135.09 41.7889C135.343 42.2181 135.658 42.7231 136.037 43.3038C136.441 43.8593 136.858 44.44 137.287 45.0459C137.792 45.7276 138.234 46.2579 138.612 46.6366C138.991 46.9901 139.383 47.2425 139.787 47.394C140.19 47.5455 140.658 47.6213 141.188 47.6213V48H138.007C136.643 48 135.482 47.899 134.522 47.697C133.588 47.495 132.767 47.1289 132.061 46.5987C131.379 46.0432 130.748 45.2984 130.167 44.3642C129.94 44.036 129.7 43.6446 129.447 43.1902C129.195 42.7104 128.942 42.2307 128.69 41.751C128.437 41.2713 128.21 40.8042 128.008 40.3497C127.831 39.8952 127.705 39.5165 127.629 39.2135C127.301 38.4056 126.922 37.8249 126.493 37.4714C126.089 37.0927 125.711 36.9033 125.357 36.9033V36.5625C125.357 36.5625 125.445 36.5625 125.622 36.5625C125.799 36.5625 126.026 36.5625 126.304 36.5625C126.834 36.5625 127.352 36.4741 127.857 36.2973C128.387 36.0954 128.867 35.7293 129.296 35.199C129.725 34.6436 130.041 33.8356 130.243 32.7752C130.293 32.6237 130.331 32.4091 130.356 32.1314C130.407 31.8536 130.419 31.538 130.394 31.1845C130.344 30.2503 130.167 29.5055 129.864 28.9501C129.586 28.3693 129.233 27.9401 128.803 27.6624C128.374 27.3594 127.932 27.1574 127.478 27.0564C127.049 26.9302 126.67 26.8671 126.342 26.8671C125.862 26.8418 125.42 26.8418 125.016 26.8671C124.637 26.8671 124.347 26.8544 124.145 26.8292C124.12 26.8292 124.082 26.7029 124.032 26.4505C123.981 26.1727 123.931 25.9076 123.88 25.6551C123.83 25.4026 123.804 25.2764 123.804 25.2764ZM124.183 25.2764V48H118.691V25.2764H124.183ZM118.805 45.614L118.957 48H116.23V47.6213C116.255 47.6213 116.318 47.6213 116.419 47.6213C116.545 47.6213 116.634 47.6213 116.684 47.6213C117.24 47.6213 117.707 47.4319 118.085 47.0532C118.489 46.6492 118.704 46.1695 118.729 45.614H118.805ZM118.805 27.6245H118.729C118.704 27.0438 118.489 26.5767 118.085 26.2232C117.707 25.8445 117.252 25.6551 116.722 25.6551C116.646 25.6551 116.545 25.6551 116.419 25.6551C116.318 25.6551 116.255 25.6551 116.23 25.6551V25.2764H118.957L118.805 27.6245ZM124.107 45.614H124.183C124.183 46.2452 124.398 46.7376 124.827 47.0911C125.281 47.4445 125.761 47.6213 126.266 47.6213C126.266 47.6213 126.316 47.6213 126.417 47.6213C126.518 47.6213 126.594 47.6213 126.645 47.6213V48H123.918L124.107 45.614Z" fill="white"/>
<path d="M148.997 25.2764V48H143.544V25.2764H148.997ZM143.657 45.614V48H140.893V47.6213C140.893 47.6213 140.968 47.6213 141.12 47.6213C141.271 47.6213 141.36 47.6213 141.385 47.6213C141.966 47.6213 142.471 47.4319 142.9 47.0532C143.329 46.6492 143.544 46.1695 143.544 45.614H143.657ZM148.922 45.614H148.997C149.023 46.1695 149.237 46.6492 149.641 47.0532C150.07 47.4319 150.588 47.6213 151.194 47.6213C151.194 47.6213 151.257 47.6213 151.383 47.6213C151.535 47.6213 151.623 47.6213 151.648 47.6213V48H148.922V45.614ZM148.922 27.6624V25.2764H151.648L151.61 25.6551C151.61 25.6551 151.547 25.6551 151.421 25.6551C151.295 25.6551 151.219 25.6551 151.194 25.6551C150.588 25.6551 150.07 25.8445 149.641 26.2232C149.237 26.6019 149.023 27.0817 148.997 27.6624H148.922ZM143.657 27.6624H143.544C143.544 27.0817 143.329 26.6019 142.9 26.2232C142.471 25.8445 141.953 25.6551 141.347 25.6551C141.347 25.6551 141.271 25.6551 141.12 25.6551C140.968 25.6551 140.893 25.6551 140.893 25.6551V25.2764H143.657V27.6624Z" fill="white"/>
<path d="M166.978 24.7841C168.948 24.7841 170.728 25.0618 172.318 25.6173C173.934 26.1475 175.31 26.9302 176.446 27.9654C177.608 29.0005 178.491 30.2503 179.097 31.7148C179.729 33.1792 180.044 34.8329 180.044 36.6761C180.044 38.494 179.729 40.1351 179.097 41.5995C178.491 43.0387 177.608 44.2759 176.446 45.311C175.31 46.3462 173.934 47.1416 172.318 47.697C170.728 48.2272 168.948 48.4923 166.978 48.4923C165.009 48.4923 163.216 48.2272 161.6 47.697C160.01 47.1416 158.634 46.3462 157.472 45.311C156.336 44.2759 155.452 43.0387 154.821 41.5995C154.215 40.1351 153.912 38.494 153.912 36.6761C153.912 34.8329 154.215 33.1792 154.821 31.7148C155.452 30.2503 156.336 29.0005 157.472 27.9654C158.634 26.9302 160.01 26.1475 161.6 25.6173C163.216 25.0618 165.009 24.7841 166.978 24.7841ZM166.978 47.0153C168.443 47.0153 169.718 46.5987 170.803 45.7655C171.914 44.9071 172.76 43.7078 173.341 42.1676C173.947 40.6275 174.25 38.7969 174.25 36.6761C174.25 34.53 173.947 32.6868 173.341 31.1467C172.76 29.5813 171.914 28.382 170.803 27.5488C169.718 26.6903 168.443 26.2611 166.978 26.2611C165.514 26.2611 164.239 26.6903 163.153 27.5488C162.067 28.382 161.222 29.5813 160.616 31.1467C160.01 32.6868 159.707 34.53 159.707 36.6761C159.707 38.7969 160.01 40.6275 160.616 42.1676C161.222 43.7078 162.067 44.9071 163.153 45.7655C164.239 46.5987 165.514 47.0153 166.978 47.0153ZM166.902 48.4545L165.766 47.0911C167.155 47.192 168.392 47.3183 169.478 47.4698C170.563 47.596 171.561 47.7601 172.47 47.9621C173.379 48.1641 174.288 48.404 175.197 48.6817C176.106 48.9594 177.078 49.275 178.113 49.6285C179.148 50.0072 180.335 50.4617 181.673 50.9919C183.162 51.5474 184.602 51.9514 185.99 52.2039C187.404 52.4816 188.742 52.5826 190.005 52.5068C191.267 52.4563 192.441 52.2417 193.527 51.863C194.613 51.4843 195.597 50.9541 196.481 50.2724L196.67 50.386C196.62 51.5222 196.292 52.57 195.686 53.5294C195.105 54.4888 194.297 55.2842 193.262 55.9154C192.227 56.5718 190.989 57.0137 189.55 57.2409C188.136 57.4682 186.558 57.4177 184.816 57.0894C183.099 56.7612 181.269 56.0921 179.325 55.0822C178.113 54.451 176.964 53.7693 175.878 53.0371C174.818 52.3049 173.795 51.5979 172.811 50.9162C171.826 50.2597 170.854 49.7043 169.894 49.2498C168.935 48.8206 167.938 48.5555 166.902 48.4545Z" fill="white"/>
<path fill-rule="evenodd" clip-rule="evenodd" d="M58.2531 53.6626C56.3065 54.3862 54.2004 54.7816 52.0019 54.7816C42.093 54.7816 34.0603 46.749 34.0603 36.8401C34.0603 29.5881 38.363 23.341 44.5548 20.5124C42.6678 20.0024 40.6831 19.7303 38.6348 19.7303C26.134 19.7303 16 29.8643 16 42.3652C16 54.8661 26.134 65 38.6348 65C47.0212 65 54.3423 60.4392 58.2531 53.6626Z" fill="white"/>
</svg>

