<svg width="181" height="54" viewBox="0 0 181 54" fill="none" xmlns="http://www.w3.org/2000/svg">
<path d="M41.6946 13.7841C43.7145 13.7841 45.545 14.0618 47.1861 14.6173C48.8273 15.1475 50.2412 15.9302 51.4279 16.9654C52.6145 18.0005 53.5235 19.2503 54.1547 20.7148C54.8112 22.1792 55.1394 23.8329 55.1394 25.6761C55.1394 27.494 54.8112 29.1351 54.1547 30.5995C53.5235 32.0387 52.6145 33.2759 51.4279 34.311C50.2412 35.3462 48.8273 36.1416 47.1861 36.697C45.545 37.2272 43.7145 37.4923 41.6946 37.4923C39.7 37.4923 37.8821 37.2272 36.2409 36.697C34.5998 36.1416 33.1859 35.3462 31.9992 34.311C30.8125 33.2759 29.9036 32.0387 29.2724 30.5995C28.6411 29.1351 28.3255 27.494 28.3255 25.6761C28.3255 23.8329 28.6411 22.1792 29.2724 20.7148C29.9036 19.2503 30.8125 18.0005 31.9992 16.9654C33.1859 15.9302 34.5998 15.1475 36.2409 14.6173C37.8821 14.0618 39.7 13.7841 41.6946 13.7841ZM41.6946 36.0153C43.2347 36.0153 44.5729 35.5987 45.7091 34.7655C46.8705 33.9071 47.7542 32.7078 48.3602 31.1676C48.9914 29.6275 49.307 27.7969 49.307 25.6761C49.307 23.53 48.9914 21.6868 48.3602 20.1467C47.7542 18.5813 46.8705 17.382 45.7091 16.5488C44.5729 15.6903 43.2347 15.2611 41.6946 15.2611C40.1797 15.2611 38.8541 15.6903 37.718 16.5488C36.5818 17.382 35.6981 18.5813 35.0669 20.1467C34.4357 21.6868 34.1201 23.53 34.1201 25.6761C34.1201 27.7969 34.4357 29.6275 35.0669 31.1676C35.6981 32.7078 36.5818 33.9071 37.718 34.7655C38.8541 35.5987 40.1797 36.0153 41.6946 36.0153ZM59.5166 13.7462L81.7479 33.2885L82.1266 37.4923L59.9332 17.9501L59.5166 13.7462ZM59.6681 34.6898V37H56.8655V36.6213C56.8655 36.6213 56.9665 36.6213 57.1685 36.6213C57.3705 36.6213 57.4715 36.6213 57.4715 36.6213C58.0522 36.6213 58.5446 36.4445 58.9485 36.0911C59.3525 35.7123 59.5545 35.2452 59.5545 34.6898H59.6681ZM64.7431 34.6898C64.7683 35.2452 64.9829 35.7123 65.3869 36.0911C65.7909 36.4445 66.2706 36.6213 66.8261 36.6213C66.8261 36.6213 66.9271 36.6213 67.129 36.6213C67.3563 36.6213 67.4699 36.6213 67.4699 36.6213V37H64.6673V34.6898H64.7431ZM59.5166 13.7462L64.7431 19.4271V37H59.5545V18.0637C59.5545 16.776 59.4914 15.7408 59.3651 14.9581C59.2389 14.1502 59.1758 13.7462 59.1758 13.7462H59.5166ZM82.0887 14.2764V33.0612C82.0887 33.9449 82.114 34.7276 82.1645 35.4093C82.2402 36.0658 82.3034 36.5834 82.3538 36.9621C82.4296 37.3156 82.4675 37.4923 82.4675 37.4923H82.1266L76.9002 31.4706V14.2764H82.0887ZM81.9751 16.5866V14.2764H84.8156V14.6551C84.8156 14.6551 84.702 14.6551 84.4747 14.6551C84.2727 14.6551 84.1717 14.6551 84.1717 14.6551C83.6163 14.6551 83.1239 14.8445 82.6947 15.2232C82.2907 15.5767 82.0887 16.0312 82.0887 16.5866H81.9751ZM76.9002 16.5866C76.8749 16.0312 76.6603 15.5767 76.2564 15.2232C75.8776 14.8445 75.3979 14.6551 74.8172 14.6551C74.8172 14.6551 74.7036 14.6551 74.4763 14.6551C74.2743 14.6551 74.1734 14.6551 74.1734 14.6551V14.2764H76.9759V16.5866H76.9002ZM94.9767 14.2764V37H89.523V14.2764H94.9767ZM89.6366 34.614V37H86.8719V36.6213C86.8719 36.6213 86.9477 36.6213 87.0992 36.6213C87.2507 36.6213 87.339 36.6213 87.3643 36.6213C87.945 36.6213 88.45 36.4319 88.8792 36.0532C89.3084 35.6492 89.523 35.1695 89.523 34.614H89.6366ZM94.9009 34.614H94.9767C95.0019 35.1695 95.2165 35.6492 95.6205 36.0532C96.0497 36.4319 96.5673 36.6213 97.1733 36.6213C97.1733 36.6213 97.2364 36.6213 97.3627 36.6213C97.5142 36.6213 97.6025 36.6213 97.6278 36.6213V37H94.9009V34.614ZM94.9009 16.6624V14.2764H97.6278L97.5899 14.6551C97.5899 14.6551 97.5268 14.6551 97.4005 14.6551C97.2743 14.6551 97.1985 14.6551 97.1733 14.6551C96.5673 14.6551 96.0497 14.8445 95.6205 15.2232C95.2165 15.6019 95.0019 16.0817 94.9767 16.6624H94.9009ZM89.6366 16.6624H89.523C89.523 16.0817 89.3084 15.6019 88.8792 15.2232C88.45 14.8445 87.9324 14.6551 87.3264 14.6551C87.3264 14.6551 87.2507 14.6551 87.0992 14.6551C86.9477 14.6551 86.8719 14.6551 86.8719 14.6551V14.2764H89.6366V16.6624ZM107.804 14.2764H111.895C112.93 14.2764 113.94 14.39 114.924 14.6173C115.909 14.8192 116.793 15.1601 117.575 15.6398C118.358 16.0943 118.977 16.7255 119.431 17.5335C119.911 18.3162 120.151 19.3008 120.151 20.4875C120.151 21.3712 119.961 22.2549 119.583 23.1386C119.229 23.9971 118.661 24.7419 117.878 25.3731C117.121 26.0043 116.124 26.4209 114.886 26.6229C115.619 26.8501 116.313 27.292 116.969 27.9484C117.651 28.6049 118.181 29.2235 118.56 29.8042C118.661 30.0062 118.838 30.3344 119.09 30.7889C119.343 31.2181 119.658 31.7231 120.037 32.3038C120.441 32.8593 120.858 33.44 121.287 34.0459C121.792 34.7276 122.234 35.2579 122.612 35.6366C122.991 35.9901 123.383 36.2425 123.787 36.394C124.191 36.5455 124.658 36.6213 125.188 36.6213V37H122.007C120.643 37 119.482 36.899 118.522 36.697C117.588 36.495 116.767 36.1289 116.061 35.5987C115.379 35.0432 114.748 34.2984 114.167 33.3642C113.94 33.036 113.7 32.6446 113.447 32.1902C113.195 31.7105 112.942 31.2307 112.69 30.751C112.437 30.2713 112.21 29.8042 112.008 29.3497C111.831 28.8953 111.705 28.5165 111.629 28.2135C111.301 27.4056 110.922 26.8249 110.493 26.4714C110.089 26.0927 109.711 25.9033 109.357 25.9033V25.5625C109.357 25.5625 109.445 25.5625 109.622 25.5625C109.799 25.5625 110.026 25.5625 110.304 25.5625C110.834 25.5625 111.352 25.4741 111.857 25.2973C112.387 25.0954 112.867 24.7293 113.296 24.199C113.725 23.6436 114.041 22.8356 114.243 21.7752C114.293 21.6237 114.331 21.4091 114.356 21.1314C114.407 20.8536 114.419 20.538 114.394 20.1845C114.344 19.2503 114.167 18.5055 113.864 17.9501C113.586 17.3693 113.233 16.9401 112.803 16.6624C112.374 16.3594 111.932 16.1574 111.478 16.0564C111.049 15.9302 110.67 15.8671 110.342 15.8671C109.862 15.8418 109.42 15.8418 109.016 15.8671C108.637 15.8671 108.347 15.8544 108.145 15.8292C108.12 15.8292 108.082 15.7029 108.032 15.4505C107.981 15.1727 107.931 14.9076 107.88 14.6551C107.83 14.4026 107.804 14.2764 107.804 14.2764ZM108.183 14.2764V37H102.691V14.2764H108.183ZM102.805 34.614L102.957 37H100.23V36.6213C100.255 36.6213 100.318 36.6213 100.419 36.6213C100.545 36.6213 100.634 36.6213 100.684 36.6213C101.24 36.6213 101.707 36.4319 102.086 36.0532C102.489 35.6492 102.704 35.1695 102.729 34.614H102.805ZM102.805 16.6245H102.729C102.704 16.0438 102.489 15.5767 102.086 15.2232C101.707 14.8445 101.252 14.6551 100.722 14.6551C100.646 14.6551 100.545 14.6551 100.419 14.6551C100.318 14.6551 100.255 14.6551 100.23 14.6551V14.2764H102.957L102.805 16.6245ZM108.107 34.614H108.183C108.183 35.2452 108.398 35.7376 108.827 36.0911C109.281 36.4445 109.761 36.6213 110.266 36.6213C110.266 36.6213 110.316 36.6213 110.417 36.6213C110.518 36.6213 110.594 36.6213 110.645 36.6213V37H107.918L108.107 34.614ZM132.997 14.2764V37H127.544V14.2764H132.997ZM127.657 34.614V37H124.893V36.6213C124.893 36.6213 124.968 36.6213 125.12 36.6213C125.271 36.6213 125.36 36.6213 125.385 36.6213C125.966 36.6213 126.471 36.4319 126.9 36.0532C127.329 35.6492 127.544 35.1695 127.544 34.614H127.657ZM132.922 34.614H132.997C133.023 35.1695 133.237 35.6492 133.641 36.0532C134.07 36.4319 134.588 36.6213 135.194 36.6213C135.194 36.6213 135.257 36.6213 135.383 36.6213C135.535 36.6213 135.623 36.6213 135.648 36.6213V37H132.922V34.614ZM132.922 16.6624V14.2764H135.648L135.61 14.6551C135.61 14.6551 135.547 14.6551 135.421 14.6551C135.295 14.6551 135.219 14.6551 135.194 14.6551C134.588 14.6551 134.07 14.8445 133.641 15.2232C133.237 15.6019 133.023 16.0817 132.997 16.6624H132.922ZM127.657 16.6624H127.544C127.544 16.0817 127.329 15.6019 126.9 15.2232C126.471 14.8445 125.953 14.6551 125.347 14.6551C125.347 14.6551 125.271 14.6551 125.12 14.6551C124.968 14.6551 124.893 14.6551 124.893 14.6551V14.2764H127.657V16.6624ZM150.978 13.7841C152.948 13.7841 154.728 14.0618 156.318 14.6173C157.934 15.1475 159.31 15.9302 160.446 16.9654C161.608 18.0005 162.492 19.2503 163.097 20.7148C163.729 22.1792 164.044 23.8329 164.044 25.6761C164.044 27.494 163.729 29.1351 163.097 30.5995C162.492 32.0387 161.608 33.2759 160.446 34.311C159.31 35.3462 157.934 36.1416 156.318 36.697C154.728 37.2272 152.948 37.4923 150.978 37.4923C149.009 37.4923 147.216 37.2272 145.6 36.697C144.01 36.1416 142.634 35.3462 141.472 34.311C140.336 33.2759 139.452 32.0387 138.821 30.5995C138.215 29.1351 137.912 27.494 137.912 25.6761C137.912 23.8329 138.215 22.1792 138.821 20.7148C139.452 19.2503 140.336 18.0005 141.472 16.9654C142.634 15.9302 144.01 15.1475 145.6 14.6173C147.216 14.0618 149.009 13.7841 150.978 13.7841ZM150.978 36.0153C152.443 36.0153 153.718 35.5987 154.803 34.7655C155.914 33.9071 156.76 32.7078 157.341 31.1676C157.947 29.6275 158.25 27.7969 158.25 25.6761C158.25 23.53 157.947 21.6868 157.341 20.1467C156.76 18.5813 155.914 17.382 154.803 16.5488C153.718 15.6903 152.443 15.2611 150.978 15.2611C149.514 15.2611 148.239 15.6903 147.153 16.5488C146.067 17.382 145.222 18.5813 144.616 20.1467C144.01 21.6868 143.707 23.53 143.707 25.6761C143.707 27.7969 144.01 29.6275 144.616 31.1676C145.222 32.7078 146.067 33.9071 147.153 34.7655C148.239 35.5987 149.514 36.0153 150.978 36.0153ZM150.902 37.4545L149.766 36.0911C151.155 36.192 152.392 36.3183 153.478 36.4698C154.563 36.596 155.561 36.7601 156.47 36.9621C157.379 37.1641 158.288 37.404 159.197 37.6817C160.106 37.9594 161.078 38.275 162.113 38.6285C163.148 39.0073 164.335 39.4617 165.673 39.9919C167.162 40.5474 168.602 40.9514 169.99 41.2039C171.404 41.4816 172.742 41.5826 174.005 41.5068C175.267 41.4563 176.441 41.2417 177.527 40.863C178.613 40.4843 179.597 39.9541 180.481 39.2724L180.67 39.386C180.62 40.5222 180.292 41.57 179.686 42.5294C179.105 43.4888 178.297 44.2842 177.262 44.9154C176.227 45.5718 174.989 46.0137 173.55 46.2409C172.136 46.4682 170.558 46.4177 168.816 46.0894C167.099 45.7612 165.269 45.0921 163.325 44.0822C162.113 43.451 160.964 42.7693 159.878 42.0371C158.818 41.3049 157.795 40.5979 156.811 39.9162C155.826 39.2597 154.854 38.7043 153.894 38.2498C152.935 37.8206 151.938 37.5555 150.902 37.4545Z" fill="white"/>
<path fill-rule="evenodd" clip-rule="evenodd" d="M42.2531 42.6626C40.3065 43.3862 38.2004 43.7816 36.0019 43.7816C26.093 43.7816 18.0603 35.749 18.0603 25.8401C18.0603 18.5881 22.363 12.341 28.5548 9.51236C26.6678 9.00241 24.6831 8.73035 22.6348 8.73035C10.134 8.73035 0 18.8643 0 31.3652C0 43.8661 10.134 54 22.6348 54C31.0212 54 38.3423 49.4392 42.2531 42.6626Z" fill="white"/>
</svg>
