<svg width="331" height="109" viewBox="0 0 331 109" fill="none" xmlns="http://www.w3.org/2000/svg">
<path fill-rule="evenodd" clip-rule="evenodd" d="M304.98 45.5579C304.487 33.5684 294.611 24 282.5 24C279.057 24 275.794 24.7734 272.876 26.1561C265.747 10.715 250.125 0 232 0C212.497 0 195.891 12.4075 189.646 29.7598C184.695 24.9568 177.943 22 170.5 22C158.701 22 148.637 29.4308 144.734 39.8678C142.271 37.5235 138.938 36.0846 135.269 36.0846C133.562 36.0846 131.929 36.396 130.421 36.965C128.232 27.2535 119.554 20 109.181 20C103.036 20 97.4849 22.5458 93.5264 26.6403C92.6318 25.692 91.3638 25.1 89.9575 25.1C88.3657 25.1 86.9507 25.8586 86.0547 27.0342C84.0308 26.2905 81.8438 25.8846 79.5615 25.8846C72.2134 25.8846 65.8486 30.0932 62.7456 36.2314C62.4258 36.1844 62.1025 36.1484 61.7764 36.1238C61.4316 36.0978 61.083 36.0846 60.731 36.0846C57.0083 36.0846 53.6318 37.5659 51.1587 39.9711C46.8828 33.3687 39.4517 29 31 29C17.7451 29 7 39.7452 7 53C7 54.2506 7.0957 55.4789 7.28027 56.6779C2.73145 62.2046 0 69.2833 0 77C0 94.6731 14.3267 109 32 109H299C316.673 109 331 94.6731 331 77C331 61.3708 319.795 48.3586 304.98 45.5579Z" fill="white"/>
</svg>
