<svg width="95" height="74" viewBox="0 0 95 74" fill="none" xmlns="http://www.w3.org/2000/svg">
<path fill-rule="evenodd" clip-rule="evenodd" d="M55.7042 6.38351C52.2455 2.45855 47.29 0 41.7857 0C35.1845 0 29.3725 3.53614 25.9852 8.89704C23.8045 7.97962 21.4229 7.47475 18.9286 7.47475C8.47461 7.47475 0 16.3431 0 27.2828C0 30.2162 0.609307 33.0006 1.7027 35.505C0.609307 38.0095 0 40.7939 0 43.7273C0 53.4996 6.76246 61.6191 15.6574 63.2407C18.7983 69.6298 25.1615 74 32.5 74C39.3756 74 45.3951 70.1637 48.7103 64.425C51.922 66.2093 55.9649 67.2727 60.3571 67.2727C69.0774 67.2727 76.4203 63.0813 78.6161 57.3781C87.8667 56.0774 95 47.7842 95 37.7475C95 31.44 92.1828 25.8211 87.7933 22.1936C87.8356 21.6534 87.8571 21.1071 87.8571 20.5556C87.8571 9.61586 79.3825 0.747475 68.9286 0.747475C63.7826 0.747475 59.1162 2.8964 55.7042 6.38351Z" fill="white"/>
</svg>
